<mxfile host="app.diagrams.net" modified="2020-09-03T08:18:19.027Z" agent="5.0 (Macintosh; Intel Mac OS X 10_15_3) AppleWebKit/537.36 (KHTML, like Gecko) Chrome/84.0.4147.125 Safari/537.36" etag="TMSIMDVVHDPUu-hPosWf" version="13.6.6" type="github">
  <diagram id="taEF6gKqKjsMakbiYHnn" name="Page-1">
    <mxGraphModel dx="1426" dy="771" grid="1" gridSize="10" guides="1" tooltips="1" connect="1" arrows="1" fold="1" page="1" pageScale="1" pageWidth="1200" pageHeight="1920" math="0" shadow="0">
      <root>
        <mxCell id="0" />
        <mxCell id="1" parent="0" />
        <mxCell id="X6tpoDbGs6iXcT0CqlrF-1" value="" style="endArrow=classic;html=1;strokeWidth=3;" edge="1" parent="1">
          <mxGeometry width="50" height="50" relative="1" as="geometry">
            <mxPoint x="235" y="560" as="sourcePoint" />
            <mxPoint x="965" y="560" as="targetPoint" />
          </mxGeometry>
        </mxCell>
        <mxCell id="X6tpoDbGs6iXcT0CqlrF-2" value="&lt;font style=&quot;font-size: 20px&quot;&gt;Time Line&lt;/font&gt;" style="text;html=1;strokeColor=none;fillColor=none;align=center;verticalAlign=middle;whiteSpace=wrap;rounded=0;" vertex="1" parent="1">
          <mxGeometry x="520" y="580" width="120" height="20" as="geometry" />
        </mxCell>
        <mxCell id="X6tpoDbGs6iXcT0CqlrF-3" value="&lt;font style=&quot;font-size: 18px&quot;&gt;Application Id&lt;/font&gt;" style="rounded=1;whiteSpace=wrap;html=1;fillColor=#f5f5f5;strokeColor=#666666;fontColor=#333333;" vertex="1" parent="1">
          <mxGeometry x="550" y="40" width="120" height="30" as="geometry" />
        </mxCell>
        <mxCell id="X6tpoDbGs6iXcT0CqlrF-4" value="" style="endArrow=classic;html=1;strokeWidth=3;" edge="1" parent="1">
          <mxGeometry width="50" height="50" relative="1" as="geometry">
            <mxPoint x="253" y="580" as="sourcePoint" />
            <mxPoint x="253" y="70" as="targetPoint" />
          </mxGeometry>
        </mxCell>
        <mxCell id="X6tpoDbGs6iXcT0CqlrF-5" value="&lt;span style=&quot;color: rgb(51 , 51 , 51)&quot;&gt;&lt;font style=&quot;font-size: 20px&quot;&gt;Heuristic&lt;/font&gt;&lt;/span&gt;" style="text;html=1;strokeColor=none;fillColor=none;align=center;verticalAlign=middle;whiteSpace=wrap;rounded=0;" vertex="1" parent="1">
          <mxGeometry x="120" y="280" width="120" height="30" as="geometry" />
        </mxCell>
        <mxCell id="X6tpoDbGs6iXcT0CqlrF-6" value="" style="endArrow=none;html=1;strokeWidth=3;" edge="1" parent="1">
          <mxGeometry width="50" height="50" relative="1" as="geometry">
            <mxPoint x="340" y="590" as="sourcePoint" />
            <mxPoint x="340" y="530" as="targetPoint" />
          </mxGeometry>
        </mxCell>
        <mxCell id="X6tpoDbGs6iXcT0CqlrF-7" value="" style="endArrow=none;html=1;strokeWidth=3;" edge="1" parent="1">
          <mxGeometry width="50" height="50" relative="1" as="geometry">
            <mxPoint x="880" y="590" as="sourcePoint" />
            <mxPoint x="880" y="530" as="targetPoint" />
          </mxGeometry>
        </mxCell>
        <mxCell id="X6tpoDbGs6iXcT0CqlrF-8" value="" style="endArrow=none;html=1;strokeWidth=1;fillColor=#f8cecc;strokeColor=#b85450;" edge="1" parent="1">
          <mxGeometry width="50" height="50" relative="1" as="geometry">
            <mxPoint x="380" y="575" as="sourcePoint" />
            <mxPoint x="380" y="545" as="targetPoint" />
          </mxGeometry>
        </mxCell>
        <mxCell id="X6tpoDbGs6iXcT0CqlrF-9" value="" style="endArrow=none;html=1;strokeWidth=1;fillColor=#f8cecc;strokeColor=#b85450;" edge="1" parent="1">
          <mxGeometry width="50" height="50" relative="1" as="geometry">
            <mxPoint x="420" y="575" as="sourcePoint" />
            <mxPoint x="420" y="545" as="targetPoint" />
          </mxGeometry>
        </mxCell>
        <mxCell id="X6tpoDbGs6iXcT0CqlrF-10" value="" style="endArrow=none;html=1;strokeWidth=1;fillColor=#f8cecc;strokeColor=#b85450;" edge="1" parent="1">
          <mxGeometry width="50" height="50" relative="1" as="geometry">
            <mxPoint x="455" y="575" as="sourcePoint" />
            <mxPoint x="455" y="545" as="targetPoint" />
          </mxGeometry>
        </mxCell>
        <mxCell id="X6tpoDbGs6iXcT0CqlrF-11" value="" style="endArrow=none;html=1;strokeWidth=1;fillColor=#f8cecc;strokeColor=#b85450;" edge="1" parent="1">
          <mxGeometry width="50" height="50" relative="1" as="geometry">
            <mxPoint x="495" y="575" as="sourcePoint" />
            <mxPoint x="495" y="545" as="targetPoint" />
          </mxGeometry>
        </mxCell>
        <mxCell id="X6tpoDbGs6iXcT0CqlrF-12" value="Fetch" style="text;html=1;strokeColor=none;fillColor=none;align=center;verticalAlign=middle;whiteSpace=wrap;rounded=0;" vertex="1" parent="1">
          <mxGeometry x="360" y="580" width="40" height="20" as="geometry" />
        </mxCell>
        <mxCell id="X6tpoDbGs6iXcT0CqlrF-14" value="" style="endArrow=none;html=1;strokeWidth=2;" edge="1" parent="1">
          <mxGeometry width="50" height="50" relative="1" as="geometry">
            <mxPoint x="340" y="420" as="sourcePoint" />
            <mxPoint x="880" y="420" as="targetPoint" />
          </mxGeometry>
        </mxCell>
        <mxCell id="X6tpoDbGs6iXcT0CqlrF-15" value="" style="endArrow=none;html=1;strokeWidth=2;" edge="1" parent="1">
          <mxGeometry width="50" height="50" relative="1" as="geometry">
            <mxPoint x="340" y="280" as="sourcePoint" />
            <mxPoint x="880" y="280" as="targetPoint" />
          </mxGeometry>
        </mxCell>
        <mxCell id="X6tpoDbGs6iXcT0CqlrF-16" value="" style="endArrow=none;html=1;strokeWidth=2;" edge="1" parent="1">
          <mxGeometry width="50" height="50" relative="1" as="geometry">
            <mxPoint x="340" y="150" as="sourcePoint" />
            <mxPoint x="880" y="150" as="targetPoint" />
          </mxGeometry>
        </mxCell>
        <mxCell id="X6tpoDbGs6iXcT0CqlrF-28" value="" style="group" vertex="1" connectable="0" parent="1">
          <mxGeometry x="460" y="300" width="270" height="103" as="geometry" />
        </mxCell>
        <mxCell id="X6tpoDbGs6iXcT0CqlrF-18" value="&lt;font style=&quot;font-size: 15px&quot;&gt;TaskManager GC&lt;/font&gt;" style="text;html=1;strokeColor=#6c8ebf;fillColor=#dae8fc;align=center;verticalAlign=middle;whiteSpace=wrap;rounded=0;" vertex="1" parent="X6tpoDbGs6iXcT0CqlrF-28">
          <mxGeometry y="42.5" width="130" height="30" as="geometry" />
        </mxCell>
        <mxCell id="X6tpoDbGs6iXcT0CqlrF-22" value="&lt;span style=&quot;font-family: , , &amp;#34;segoe ui&amp;#34; , &amp;#34;roboto&amp;#34; , &amp;#34;oxygen&amp;#34; , &amp;#34;ubuntu&amp;#34; , &amp;#34;fira sans&amp;#34; , &amp;#34;droid sans&amp;#34; , &amp;#34;helvetica neue&amp;#34; , sans-serif ; font-size: 14px ; background-color: rgb(255 , 255 , 255)&quot;&gt;avg_gc_time&lt;/span&gt;" style="text;html=1;strokeColor=none;fillColor=none;align=center;verticalAlign=middle;whiteSpace=wrap;rounded=0;" vertex="1" parent="X6tpoDbGs6iXcT0CqlrF-28">
          <mxGeometry x="155" width="110" height="20" as="geometry" />
        </mxCell>
        <mxCell id="X6tpoDbGs6iXcT0CqlrF-23" value="&lt;span style=&quot;font-family: , , &amp;#34;segoe ui&amp;#34; , &amp;#34;roboto&amp;#34; , &amp;#34;oxygen&amp;#34; , &amp;#34;ubuntu&amp;#34; , &amp;#34;fira sans&amp;#34; , &amp;#34;droid sans&amp;#34; , &amp;#34;helvetica neue&amp;#34; , sans-serif ; font-size: 14px ; background-color: rgb(255 , 255 , 255)&quot;&gt;avg_cpu_time&lt;/span&gt;" style="text;html=1;strokeColor=none;fillColor=none;align=center;verticalAlign=middle;whiteSpace=wrap;rounded=0;" vertex="1" parent="X6tpoDbGs6iXcT0CqlrF-28">
          <mxGeometry x="160" y="30" width="110" height="20" as="geometry" />
        </mxCell>
        <mxCell id="X6tpoDbGs6iXcT0CqlrF-24" value="&lt;span style=&quot;font-family: , , &amp;#34;segoe ui&amp;#34; , &amp;#34;roboto&amp;#34; , &amp;#34;oxygen&amp;#34; , &amp;#34;ubuntu&amp;#34; , &amp;#34;fira sans&amp;#34; , &amp;#34;droid sans&amp;#34; , &amp;#34;helvetica neue&amp;#34; , sans-serif ; font-size: 14px ; background-color: rgb(255 , 255 , 255)&quot;&gt;gc_count&lt;/span&gt;" style="text;html=1;strokeColor=none;fillColor=none;align=center;verticalAlign=middle;whiteSpace=wrap;rounded=0;" vertex="1" parent="X6tpoDbGs6iXcT0CqlrF-28">
          <mxGeometry x="145" y="56" width="110" height="20" as="geometry" />
        </mxCell>
        <mxCell id="X6tpoDbGs6iXcT0CqlrF-25" value="" style="shape=curlyBracket;whiteSpace=wrap;html=1;rounded=1;" vertex="1" parent="X6tpoDbGs6iXcT0CqlrF-28">
          <mxGeometry x="145" y="10" width="10" height="85" as="geometry" />
        </mxCell>
        <mxCell id="X6tpoDbGs6iXcT0CqlrF-27" value="&lt;span style=&quot;font-size: 14px ; background-color: rgb(255 , 255 , 255)&quot;&gt;..........&lt;/span&gt;" style="text;html=1;strokeColor=none;fillColor=none;align=center;verticalAlign=middle;whiteSpace=wrap;rounded=0;" vertex="1" parent="X6tpoDbGs6iXcT0CqlrF-28">
          <mxGeometry x="145" y="83" width="110" height="20" as="geometry" />
        </mxCell>
        <mxCell id="X6tpoDbGs6iXcT0CqlrF-34" value="" style="group" vertex="1" connectable="0" parent="1">
          <mxGeometry x="460" y="440" width="370" height="110" as="geometry" />
        </mxCell>
        <mxCell id="X6tpoDbGs6iXcT0CqlrF-20" value="&lt;font style=&quot;font-size: 15px&quot;&gt;Data Skew&lt;/font&gt;" style="text;html=1;strokeColor=#6c8ebf;fillColor=#dae8fc;align=center;verticalAlign=middle;whiteSpace=wrap;rounded=0;" vertex="1" parent="X6tpoDbGs6iXcT0CqlrF-34">
          <mxGeometry y="40" width="130" height="30" as="geometry" />
        </mxCell>
        <mxCell id="X6tpoDbGs6iXcT0CqlrF-29" value="&lt;span style=&quot;color: rgb(23 , 43 , 77) ; font-family: , , &amp;#34;segoe ui&amp;#34; , &amp;#34;roboto&amp;#34; , &amp;#34;oxygen&amp;#34; , &amp;#34;ubuntu&amp;#34; , &amp;#34;fira sans&amp;#34; , &amp;#34;droid sans&amp;#34; , &amp;#34;helvetica neue&amp;#34; , sans-serif ; font-size: 14px ; text-align: left ; background-color: rgb(255 , 255 , 255)&quot;&gt;sub_task_num&lt;/span&gt;" style="text;html=1;strokeColor=none;fillColor=none;align=center;verticalAlign=middle;whiteSpace=wrap;rounded=0;" vertex="1" parent="X6tpoDbGs6iXcT0CqlrF-34">
          <mxGeometry x="160" width="110" height="20" as="geometry" />
        </mxCell>
        <mxCell id="X6tpoDbGs6iXcT0CqlrF-30" value="&lt;span style=&quot;color: rgb(51 , 51 , 51) ; font-family: , , &amp;#34;segoe ui&amp;#34; , &amp;#34;roboto&amp;#34; , &amp;#34;oxygen&amp;#34; , &amp;#34;ubuntu&amp;#34; , &amp;#34;fira sans&amp;#34; , &amp;#34;droid sans&amp;#34; , &amp;#34;helvetica neue&amp;#34; , sans-serif ; font-size: 14px ; background-color: rgb(255 , 255 , 255)&quot;&gt;avg_numRecordsInPerSecond&lt;/span&gt;" style="text;html=1;strokeColor=none;fillColor=none;align=center;verticalAlign=middle;whiteSpace=wrap;rounded=0;" vertex="1" parent="X6tpoDbGs6iXcT0CqlrF-34">
          <mxGeometry x="160" y="30" width="210" height="20" as="geometry" />
        </mxCell>
        <mxCell id="X6tpoDbGs6iXcT0CqlrF-31" value="&lt;span style=&quot;color: rgb(23 , 43 , 77) ; font-family: , , &amp;#34;segoe ui&amp;#34; , &amp;#34;roboto&amp;#34; , &amp;#34;oxygen&amp;#34; , &amp;#34;ubuntu&amp;#34; , &amp;#34;fira sans&amp;#34; , &amp;#34;droid sans&amp;#34; , &amp;#34;helvetica neue&amp;#34; , sans-serif ; font-size: 14px ; background-color: rgb(255 , 255 , 255)&quot;&gt;group1_avg&lt;/span&gt;" style="text;html=1;strokeColor=none;fillColor=none;align=center;verticalAlign=middle;whiteSpace=wrap;rounded=0;" vertex="1" parent="X6tpoDbGs6iXcT0CqlrF-34">
          <mxGeometry x="160" y="60" width="100" height="20" as="geometry" />
        </mxCell>
        <mxCell id="X6tpoDbGs6iXcT0CqlrF-32" value="&lt;font color=&quot;#172b4d&quot;&gt;&lt;span style=&quot;font-size: 14px ; background-color: rgb(255 , 255 , 255)&quot;&gt;............&lt;/span&gt;&lt;/font&gt;" style="text;html=1;strokeColor=none;fillColor=none;align=center;verticalAlign=middle;whiteSpace=wrap;rounded=0;" vertex="1" parent="X6tpoDbGs6iXcT0CqlrF-34">
          <mxGeometry x="160" y="90" width="70" height="20" as="geometry" />
        </mxCell>
        <mxCell id="X6tpoDbGs6iXcT0CqlrF-33" value="" style="shape=curlyBracket;whiteSpace=wrap;html=1;rounded=1;" vertex="1" parent="X6tpoDbGs6iXcT0CqlrF-34">
          <mxGeometry x="145" y="10" width="10" height="90" as="geometry" />
        </mxCell>
        <mxCell id="X6tpoDbGs6iXcT0CqlrF-42" value="&lt;font style=&quot;font-size: 15px&quot;&gt;...........&lt;/font&gt;" style="text;html=1;strokeColor=#6c8ebf;fillColor=#dae8fc;align=center;verticalAlign=middle;whiteSpace=wrap;rounded=0;" vertex="1" parent="1">
          <mxGeometry x="475" y="100" width="80" height="30" as="geometry" />
        </mxCell>
        <mxCell id="X6tpoDbGs6iXcT0CqlrF-43" value="" style="group" vertex="1" connectable="0" parent="1">
          <mxGeometry x="430" y="160" width="295" height="110" as="geometry" />
        </mxCell>
        <mxCell id="X6tpoDbGs6iXcT0CqlrF-21" value="&lt;font style=&quot;font-size: 15px&quot;&gt;TaskManager Memory&lt;/font&gt;" style="text;html=1;strokeColor=#6c8ebf;fillColor=#dae8fc;align=center;verticalAlign=middle;whiteSpace=wrap;rounded=0;" vertex="1" parent="X6tpoDbGs6iXcT0CqlrF-43">
          <mxGeometry y="40" width="170" height="30" as="geometry" />
        </mxCell>
        <mxCell id="X6tpoDbGs6iXcT0CqlrF-35" value="" style="shape=curlyBracket;whiteSpace=wrap;html=1;rounded=1;" vertex="1" parent="X6tpoDbGs6iXcT0CqlrF-43">
          <mxGeometry x="185" y="12.5" width="10" height="85" as="geometry" />
        </mxCell>
        <mxCell id="X6tpoDbGs6iXcT0CqlrF-36" value="&lt;span style=&quot;font-family: , , &amp;#34;segoe ui&amp;#34; , &amp;#34;roboto&amp;#34; , &amp;#34;oxygen&amp;#34; , &amp;#34;ubuntu&amp;#34; , &amp;#34;fira sans&amp;#34; , &amp;#34;droid sans&amp;#34; , &amp;#34;helvetica neue&amp;#34; , sans-serif ; font-size: 14px ; background-color: rgb(255 , 255 , 255)&quot;&gt;metric_1&lt;/span&gt;" style="text;html=1;strokeColor=none;fillColor=none;align=center;verticalAlign=middle;whiteSpace=wrap;rounded=0;" vertex="1" parent="X6tpoDbGs6iXcT0CqlrF-43">
          <mxGeometry x="185" width="110" height="20" as="geometry" />
        </mxCell>
        <mxCell id="X6tpoDbGs6iXcT0CqlrF-38" value="&lt;span style=&quot;font-family: , , &amp;#34;segoe ui&amp;#34; , &amp;#34;roboto&amp;#34; , &amp;#34;oxygen&amp;#34; , &amp;#34;ubuntu&amp;#34; , &amp;#34;fira sans&amp;#34; , &amp;#34;droid sans&amp;#34; , &amp;#34;helvetica neue&amp;#34; , sans-serif ; font-size: 14px ; background-color: rgb(255 , 255 , 255)&quot;&gt;metric_2&lt;/span&gt;" style="text;html=1;strokeColor=none;fillColor=none;align=center;verticalAlign=middle;whiteSpace=wrap;rounded=0;" vertex="1" parent="X6tpoDbGs6iXcT0CqlrF-43">
          <mxGeometry x="185" y="30" width="110" height="20" as="geometry" />
        </mxCell>
        <mxCell id="X6tpoDbGs6iXcT0CqlrF-39" value="&lt;span style=&quot;font-family: , , &amp;#34;segoe ui&amp;#34; , &amp;#34;roboto&amp;#34; , &amp;#34;oxygen&amp;#34; , &amp;#34;ubuntu&amp;#34; , &amp;#34;fira sans&amp;#34; , &amp;#34;droid sans&amp;#34; , &amp;#34;helvetica neue&amp;#34; , sans-serif ; font-size: 14px ; background-color: rgb(255 , 255 , 255)&quot;&gt;metric_3&lt;/span&gt;" style="text;html=1;strokeColor=none;fillColor=none;align=center;verticalAlign=middle;whiteSpace=wrap;rounded=0;" vertex="1" parent="X6tpoDbGs6iXcT0CqlrF-43">
          <mxGeometry x="185" y="60" width="110" height="20" as="geometry" />
        </mxCell>
        <mxCell id="X6tpoDbGs6iXcT0CqlrF-40" value="&lt;span style=&quot;font-size: 14px ; background-color: rgb(255 , 255 , 255)&quot;&gt;............&lt;/span&gt;" style="text;html=1;strokeColor=none;fillColor=none;align=center;verticalAlign=middle;whiteSpace=wrap;rounded=0;" vertex="1" parent="X6tpoDbGs6iXcT0CqlrF-43">
          <mxGeometry x="185" y="90" width="110" height="20" as="geometry" />
        </mxCell>
      </root>
    </mxGraphModel>
  </diagram>
</mxfile>
